<svg xmlns="http://www.w3.org/2000/svg" width="46.999" height="40.072" viewBox="0 0 46.999 40.072">
  <path id="Path_13" data-name="Path 13" d="M11.769,4.5a.839.839,0,0,0-.593.245L1.744,14.2a.835.835,0,0,0,0,1.18l7.073,7.071a.836.836,0,0,0,1.18,0l.937-.938V43.737a.834.834,0,0,0,.835.835H38.481a.834.834,0,0,0,.835-.835V21.519l.676.675a.833.833,0,0,0,1.179,0l7.084-7.083a.838.838,0,0,0,0-1.182L39.179,4.876a.835.835,0,0,0-.7-.376H29.6a.834.834,0,0,0-.786,1.114,4.174,4.174,0,1,1-7.874,0A.834.834,0,0,0,20.152,4.5ZM30.661,6.17h7.452l8.372,8.348-5.9,5.9-1.508-1.5a.836.836,0,0,0-1.426.591V42.9H12.6V19.5a.836.836,0,0,0-1.428-.589l-1.77,1.775L3.515,14.792l8.6-8.622H19.09A5.974,5.974,0,0,0,19.032,7,5.844,5.844,0,1,0,30.719,7,5.974,5.974,0,0,0,30.661,6.17Zm2.812,10.853a1.67,1.67,0,1,1-1.67-1.67A1.669,1.669,0,0,1,33.472,17.022Zm1.67,0A3.339,3.339,0,1,1,31.8,13.683,3.338,3.338,0,0,1,35.142,17.022Z" transform="translate(-1.5 -4.5)" fill="#fff" fill-rule="evenodd"/>
</svg>
