<svg xmlns="http://www.w3.org/2000/svg" width="46.746" height="46.748" viewBox="0 0 46.746 46.748">
  <path id="Path_14" data-name="Path 14" d="M42.127,5.771h-3.9v-3.9h-2.6v3.9H14.859v-3.9h-2.6v3.9H8.368a6.5,6.5,0,0,0-6.493,6.493V42.13a6.5,6.5,0,0,0,6.493,6.493H42.127a6.5,6.5,0,0,0,6.493-6.493V12.262A6.5,6.5,0,0,0,42.127,5.771Zm3.894,36.356a3.9,3.9,0,0,1-3.894,3.894H8.368a3.9,3.9,0,0,1-3.9-3.894V18.756h41.55Zm0-25.969H4.472v-3.9a3.9,3.9,0,0,1,3.9-3.9h3.9v2.6h2.595V8.368H35.634v2.6h2.6v-2.6h3.9a3.9,3.9,0,0,1,3.894,3.894Z" transform="translate(-1.875 -1.875)" fill="#fff"/>
</svg>
