<svg xmlns="http://www.w3.org/2000/svg" width="37.866" height="46.024" viewBox="0 0 37.866 46.024">
  <g id="noun_mobile_game_153633" data-name="noun_mobile game_153633" transform="translate(-15.349 -7.5)">
    <path id="Path_702" data-name="Path 702" d="M43.934,42.306a10.979,10.979,0,0,1-2.7.008v4.017H18.227V14.691H41.239v4.017a11.3,11.3,0,0,1,1.308-.079,11.037,11.037,0,0,1,1.388.089c.062.009.12.029.18.042V10.377A2.876,2.876,0,0,0,41.237,7.5H18.226a2.876,2.876,0,0,0-2.877,2.877V50.647a2.874,2.874,0,0,0,2.877,2.877H41.237a2.875,2.875,0,0,0,2.877-2.877V42.263C44.052,42.277,44,42.3,43.934,42.306Zm-7.96-31.967a.719.719,0,1,1-.719.719A.72.72,0,0,1,35.974,10.338Zm-9.413.038H32.9a.719.719,0,1,1,0,1.438h-6.34a.719.719,0,1,1,0-1.438Zm3.17,41.709a2.156,2.156,0,1,1,2.158-2.157A2.158,2.158,0,0,1,29.731,52.085Z" transform="translate(0 0)" fill="#f8f8f8"/>
    <path id="Path_703" data-name="Path 703" d="M56.111,30a10.829,10.829,0,1,0,10.83,10.83A10.829,10.829,0,0,0,56.111,30Zm0,19.132a8.3,8.3,0,1,1,8.3-8.3A8.3,8.3,0,0,1,56.111,49.131Z" transform="translate(-13.725 -10.317)" fill="#f8f8f8"/>
    <path id="Path_704" data-name="Path 704" d="M54.748,49.422v-.646c.034-.136.026-.278.048-.415.076-.466.145-.933.237-1.4a16.439,16.439,0,0,1,.605-2.3,5.5,5.5,0,0,1,.846-1.654,1.454,1.454,0,0,1,.72-.535,2.213,2.213,0,0,1,.511-.03,1.491,1.491,0,0,1,.7.174,4.709,4.709,0,0,0,.752.277,6.526,6.526,0,0,0,2.228.072,4.208,4.208,0,0,0,1.126-.362,1.708,1.708,0,0,1,1.048-.152,1.472,1.472,0,0,1,.9.628,5.8,5.8,0,0,1,.775,1.53,15.017,15.017,0,0,1,.576,2.1c.121.585.228,1.173.3,1.767a.781.781,0,0,0,.039.293V49.4a.127.127,0,0,0-.022.084,1.758,1.758,0,0,1-.192.712.742.742,0,0,1-.514.42,1.093,1.093,0,0,1-.535-.055,3.043,3.043,0,0,1-1.129-.744c-.345-.326-.671-.671-1.012-1a1.407,1.407,0,0,0-.646-.392,5.958,5.958,0,0,0-1.231-.134,10.47,10.47,0,0,0-1.067.012,6.1,6.1,0,0,0-.977.119,1.371,1.371,0,0,0-.662.339c-.108.108-.211.225-.316.339a10.081,10.081,0,0,1-1.037,1,2.306,2.306,0,0,1-.9.486.763.763,0,0,1-.751-.132,1.141,1.141,0,0,1-.323-.572C54.8,49.733,54.778,49.577,54.748,49.422Z" transform="translate(-18.066 -16.016)" fill="#f8f8f8"/>
  </g>
</svg>
