<svg id="steam" xmlns="http://www.w3.org/2000/svg" width="39.988" height="40.178" viewBox="0 0 39.988 40.178">
  <path id="Path_573" data-name="Path 573" d="M24.876,4.79A20.088,20.088,0,0,0,4.83,23.121l10.457,4.434a5.908,5.908,0,0,1,4.068-1.046l4.779-7.1a7.32,7.32,0,1,1,7.477,7.843l-6.964,4.507a4.643,4.643,0,0,1,0,.659,5.94,5.94,0,0,1-11.837.7L5.3,29.981A20.088,20.088,0,1,0,24.876,4.79Z" transform="translate(-4.83 -4.79)" fill="#fff"/>
  <path id="Path_574" data-name="Path 574" d="M31.012,24.433a4.957,4.957,0,1,0-4.946-4.957,4.957,4.957,0,0,0,4.946,4.957Zm0-8.794a3.838,3.838,0,1,1-3.838,3.838,3.838,3.838,0,0,1,3.838-3.838ZM18.359,27.57h-.439a4.7,4.7,0,0,0-1.213.3l.784.335,1.516.638a3.012,3.012,0,0,1,1.6,3.953,2.959,2.959,0,0,1-1.7,1.642,2.991,2.991,0,0,1-2.248,0h0L14.27,33.395a4.371,4.371,0,0,0,8.491-1.119v-.335A4.392,4.392,0,0,0,18.359,27.57Z" transform="translate(-4.399 -4.345)" fill="#fff"/>
</svg>
