<svg xmlns="http://www.w3.org/2000/svg" width="47" height="47" viewBox="0 0 47 47">
  <g id="Group_16" data-name="Group 16" transform="translate(-22 -22)">
    <path id="Path_12" data-name="Path 12" d="M45.5,22A23.5,23.5,0,1,1,22,45.5,23.526,23.526,0,0,1,45.5,22Zm0,3.357A20.143,20.143,0,1,0,65.643,45.5,20.118,20.118,0,0,0,45.5,25.357Zm0,5.875a1.678,1.678,0,0,1,1.679,1.679V45.5a2.049,2.049,0,0,1-.734,1.39l-7.475,7.5a1.669,1.669,0,0,1-2.361-2.361l7.213-7.212V32.911A1.678,1.678,0,0,1,45.5,31.232Z" transform="translate(0 0)" fill="#fff"/>
  </g>
</svg>
