<svg xmlns="http://www.w3.org/2000/svg" xmlns:xlink="http://www.w3.org/1999/xlink" width="96.35" height="99.484" viewBox="0 0 96.35 99.484">
  <defs>
    <filter id="Многоугольник_9" x="0" y="0" width="96.35" height="99.484" filterUnits="userSpaceOnUse">
      <feOffset dy="3" input="SourceAlpha"/>
      <feGaussianBlur stdDeviation="3" result="blur"/>
      <feFlood flood-opacity="0.161"/>
      <feComposite operator="in" in2="blur"/>
      <feComposite in="SourceGraphic"/>
    </filter>
  </defs>
  <g id="Сгруппировать_660" data-name="Сгруппировать 660" transform="translate(-573.014 -1563.447)">
    <path id="Многоугольник_8" data-name="Многоугольник 8" d="M47.088,0l15.7,27.111-15.7,27.111H15.7L0,27.111,15.7,0Z" transform="translate(607.559 1571.015) rotate(30)" fill="#2ed88b"/>
    <g transform="matrix(1, 0, 0, 1, 573.01, 1563.45)" filter="url(#Многоугольник_9)">
      <path id="Многоугольник_9-2" data-name="Многоугольник 9" d="M47.088,0l15.7,27.111-15.7,27.111H15.7L0,27.111,15.7,0Z" transform="translate(55.96 6) rotate(60)" fill="#1f1b1c"/>
    </g>
    <g id="noun_game_controller_3323313" data-name="noun_game controller_3323313" transform="translate(608.346 1602.867)">
      <g id="Сгруппировать_659" data-name="Сгруппировать 659" transform="translate(0 0)">
        <path id="Контур_773" data-name="Контур 773" d="M9.193,20.7h12.9a3.691,3.691,0,0,1,2.586,1.108,12.008,12.008,0,0,1,2.87,5.342,21.833,21.833,0,0,1,.938,5.882,4.084,4.084,0,0,1-.568,2.5l-.057.028c-.028.028-.057.085-.114.114h0a3.034,3.034,0,0,1-1.847.54,2.775,2.775,0,0,1-1.875-.511l-.114-.114-3.353-3.978a.753.753,0,0,0-.17-.142,1.06,1.06,0,0,0-.341-.057h-8.78a1.06,1.06,0,0,0-.341.057.863.863,0,0,0-.2.142L7.346,35.589l-.114.114a2.937,2.937,0,0,1-1.875.511,3.235,3.235,0,0,1-1.847-.54L3.4,35.56l-.028-.028a4.084,4.084,0,0,1-.568-2.5,21.834,21.834,0,0,1,.938-5.882,12.166,12.166,0,0,1,2.87-5.342A3.691,3.691,0,0,1,9.193,20.7Zm2.074,7.331a.656.656,0,0,1-.625.654.676.676,0,0,1-.654-.625L9.96,26.638l-1.421.028a.656.656,0,0,1-.654-.625.676.676,0,0,1,.625-.654l1.421-.028L9.9,23.939a.639.639,0,0,1,1.279-.028l.028,1.421,1.421-.028a.639.639,0,1,1,.028,1.279l-1.421.028Zm9.263-1.25a.909.909,0,1,1-.909.909.916.916,0,0,1,.909-.909Zm1.7-1.7a.909.909,0,1,1-.909.909.916.916,0,0,1,.909-.909Zm-3.438,0a.909.909,0,1,1-.909.909.9.9,0,0,1,.909-.909Zm1.733-1.733a.909.909,0,1,1-.909.909.9.9,0,0,1,.909-.909Z" transform="translate(-2.8 -20.7)" fill="#2ed88b" fill-rule="evenodd"/>
      </g>
    </g>
  </g>
</svg>
