<svg id="Group_8" data-name="Group 8" xmlns="http://www.w3.org/2000/svg" width="173.598" height="74.82" viewBox="0 0 173.598 74.82">
  <path id="Path_43" data-name="Path 43" d="M4137.125,697.062a15.96,15.96,0,0,0-3.57,7.267,4.184,4.184,0,0,1-1.163,2.339,18.64,18.64,0,0,0-2.24,3,3.737,3.737,0,0,0-.328,1.381,15.734,15.734,0,0,1-.421,2.612c-.56,1.605-1.272,3.159-1.94,4.726a2.074,2.074,0,0,1-.48.71c-2.2,2-2.326,4.5-1.734,7.171.07.312.2.614.243.929.1.767-.184,1.26-1.037,1.259-1.156,0-2.312-.026-3.466,0-.763.017-1.063-.387-1.034-1.063a13.342,13.342,0,0,1,.229-2.288c.368-1.66.85-3.294,1.211-4.956a4.8,4.8,0,0,0-.063-1.564,5.288,5.288,0,0,1,.39-3.094c.492-1.021.721-2.166,1.158-3.219.488-1.179,1.059-2.326,1.636-3.466.317-.629.731-1.208,1.08-1.823a6.061,6.061,0,0,0,.776-3.181c-.016-1.845.438-3.689.6-5.542a14.447,14.447,0,0,0-.153-2.339c0-.03-.032-.059-.034-.09-.072-1.017-.189-2.034-.2-3.052a1.361,1.361,0,0,1,1.241-1.486c-.181-1.968-.329-3.889-.544-5.8a2.372,2.372,0,0,1,1.389-2.657l-2.112-.611a4.919,4.919,0,0,1-.031-.739c.168-1.987.373-3.971.517-5.959.044-.629.317-.8.9-.841,2.1-.161,2.127-.181,2.038-2.264a12.444,12.444,0,0,1,1.569-7.33,5.308,5.308,0,0,1,4.658-2.94,5.423,5.423,0,0,1,1.023.208c.258.053.518.1.776.152a2.974,2.974,0,0,0,.02-.9,6.421,6.421,0,0,1,1.115-5.917c1.154-1.578,4.182-2.81,6.312-1.517.219.133.472.207.693.335.717.415,1.794.684,2.059,1.3a12.256,12.256,0,0,1,.685,3.737,1.569,1.569,0,0,1-1.183,1.687c-1.179.371-.589,1.262-.541,1.94.056.8.714.55,1.2.511.286-.023.564-.145.85-.169,1.081-.089,1.819-.52,1.848-1.731,0-.1.105-.2.191-.356a2.245,2.245,0,0,0,2.524,1.931q6.421,0,12.84,0c.739,0,1.582-.265,2.115.712q.085-1.438.171-2.876l.3.031c.546.8-.683,2.366,1.1,2.7.02.285.045.627.068.949h7.392c.038.1.077.209.115.313a3.35,3.35,0,0,1-1.131.47c-1.346.006-2.692-.129-4.039-.135-1.283-.006-2.567.083-3.851.13-.1,0-.238-.028-.28.023-1.129,1.315-2.646.544-3.978.746a1.675,1.675,0,0,1-.578,0c-2.066-.426-3.417.681-4.553,2.168a1.892,1.892,0,0,0-.283,1.14,7.711,7.711,0,0,0,.3,1.508c.2.807.41,1.559-.715,1.937-.26.087-.467.7-.485,1.076-.1,1.954-1.285,3.146-2.769,4.158a2.177,2.177,0,0,1-2.174.371c-1.742-.728-3.481-1.466-5.224-2.193-.342-.143-.776-.651-1.016.021-.181.512-.609,1.21.2,1.593a1.963,1.963,0,0,1,1.149,2.207c-.141,1.7-.2,3.406-.387,5.1a6.282,6.282,0,0,1-.612,1.805,1.086,1.086,0,0,1-1.335.657c-1.017-.19-1.346.133-1.1,1.15a5.105,5.105,0,0,0,.875,2.2c2.422,2.692,3.82,5.918,5.13,9.215.287.725.847,1.345,1.122,2.073a6.965,6.965,0,0,1,.6,2.558c-.065,2.085-.531,4.171-.459,6.243.094,2.665-.531,5.248-.548,7.884a6.124,6.124,0,0,0,3.655,5.491,7.3,7.3,0,0,1,1.477.691,1.269,1.269,0,0,1,.525.955c-.044.3-.481.776-.758.785-1.7.052-3.4.046-5.1-.045-1.4-.075-2.785-.34-4.183-.437-1.242-.086-1.348-.137-1.15-1.319a9.611,9.611,0,0,1,.452-2.065,7.987,7.987,0,0,0,.21-5.315,31.658,31.658,0,0,1-1.267-7.242,5.071,5.071,0,0,1,.338-1.82,4.235,4.235,0,0,0,.2-3.159,1.061,1.061,0,0,0-1.2-.744,2.094,2.094,0,0,1-2.148-1.152c-.9-1.409-1.844-2.79-2.791-4.168-.193-.282-.478-.714-.72-.713C4138.029,699.039,4137.469,698.278,4137.125,697.062Zm16.886-25.277a21.714,21.714,0,0,0,2.006-2.728,1.63,1.63,0,0,0-.343-1.535c-.437-.359-1.1-.2-1.336.557a1.3,1.3,0,0,1-.464.576c-1.157.872-1.165.866-.454,2.162C4153.571,671.092,4153.746,671.354,4154.011,671.785Z" transform="translate(-4051.911 -653.632)" fill="#fff"/>
  <path id="Path_44" data-name="Path 44" d="M3950.333,847.448h9.689q3.475,0,6.952,0c4.1.005,6.57,2.332,6.718,6.448a26.968,26.968,0,0,1-.243,4.52,6.157,6.157,0,0,1-5.942,5.116q-8.738.093-17.476,0a5.876,5.876,0,0,1-6.031-5.421h23.2c0-1.594.019-3.125-.026-4.654,0-.173-.345-.417-.572-.484a3.463,3.463,0,0,0-.959-.039q-7.677,0-15.353.006c-3.848,0-6.383-2.455-6.434-6.285a24.744,24.744,0,0,1,.2-4.61,5.967,5.967,0,0,1,5.495-4.875c1.054-.091,2.121-.034,3.182-.037,4.7-.011,9.4-.036,14.1-.023a6.035,6.035,0,0,1,6.026,4.228c.313,1.014.195,1.188-.88,1.189q-9.367.008-18.732,0c-3.025,0-3.031,0-3.019,3.062C3950.229,846.186,3950.294,846.782,3950.333,847.448Z" transform="translate(-3909.808 -801.671)" fill="#fff"/>
  <path id="Path_45" data-name="Path 45" d="M4363.991,846.691c0,3.1-.045,6.122.014,9.142a6.136,6.136,0,0,1-6.1,6.12c-5.885-.139-11.775-.022-17.665-.03-3.7-.005-5.912-1.889-6.151-5.59-.221-3.43-.139-6.881-.143-10.323a43.287,43.287,0,0,1,.184-5.295,5.829,5.829,0,0,1,5.721-5.163c6.177-.067,12.356-.051,18.535-.006a5.93,5.93,0,0,1,5.246,3.8c.339.916.233,1.095-.729,1.1-1.994.014-3.989.005-5.985.005q-8.06,0-16.122,0c-1.231,0-1.236.019-1.236,1.233q0,6.855,0,13.709c0,.5.078,1.009.122,1.537H4358.3c0-1.833.015-3.624-.008-5.414-.01-.735-.619-.625-1.076-.628-2.639-.015-5.276,0-7.917-.011a5.062,5.062,0,0,1-4.9-3.656,3.325,3.325,0,0,1-.064-.53Z" transform="translate(-4224.568 -800.383)" fill="#fff"/>
  <path id="Path_46" data-name="Path 46" d="M4531.179,861.874c-2.831,0-5.662.007-8.494,0a5.7,5.7,0,0,1-5.85-5.658q-.107-7.334,0-14.67a6.1,6.1,0,0,1,6.16-6.034q8.492-.076,16.986.008a5.865,5.865,0,0,1,5.717,5.85c0,4.858,0,9.716-.007,14.574a5.857,5.857,0,0,1-5.828,5.935c-2.734.03-5.47.018-8.2.025h-.482Zm8.919-4.538v-1.011c0-4.952-.025-9.9.03-14.854.01-.968-.336-1.247-1.21-1.237-1.961.022-3.922.006-5.884.006q-4.727,0-9.453,0c-.557,0-1.092-.04-1.087.821q.042,7.572.013,15.144c0,.86.274,1.165,1.177,1.156,4.662-.045,9.324-.024,13.987-.026Z" transform="translate(-4372.103 -800.36)" fill="#fff"/>
  <path id="Path_47" data-name="Path 47" d="M3774.8,857.866h21.8a6.61,6.61,0,0,1-6.255,5.829c-5.5.052-11,.065-16.506,0a6.108,6.108,0,0,1-6.216-6.327c.151-4.693.033-9.394.041-14.092a5.994,5.994,0,0,1,5.779-5.947c5.855-.05,11.711-.029,17.568.018a5.938,5.938,0,0,1,5.409,4.589c.215,1.012-.41.945-1.049.949q-9.555.051-19.109.109c-.257,0-.515.014-.772.009-.586-.011-.853.2-.85.855.026,4.279.013,8.559.023,12.838A11.169,11.169,0,0,0,3774.8,857.866Z" transform="translate(-3767.62 -801.832)" fill="#fff"/>
</svg>
