<svg xmlns="http://www.w3.org/2000/svg" width="216.773" height="43.106" viewBox="0 0 216.773 43.106">
  <g id="Group_523" data-name="Group 523" transform="translate(0 0)">
    <path id="Path_48" data-name="Path 48" d="M2363.294-492.486c-.335.648-2,1.113-2.908.854a5.664,5.664,0,0,0-4.292-.024,1.435,1.435,0,0,1-.614.056,31.859,31.859,0,0,0-7.376.5,7.4,7.4,0,0,1-2.751-.192,5.105,5.105,0,0,0-2.277.154.924.924,0,0,1-1.058-.247,2.761,2.761,0,0,0-2.141-.881,4.845,4.845,0,0,1-1.811-.411c-.342-.164-.621.017-.933.069-.854.142-1.743.765-2.556-.12a.253.253,0,0,0-.239-.012c-1.173.71-2.483.219-3.717.354-1.425.155-2.892.066-4.342.227-.544.06-1-.471-1.6-.475-.237,0-.25-.28-.2-.506a29.131,29.131,0,0,0,.342-6.757c0-.4-.183-.873.544-.818.346.026.294-.321.3-.54q.039-2.236.049-4.472a.8.8,0,0,0-.12-.5c-1.239-1.339-.908-3.056-1.08-4.631-.079-.714.278-.782,1.159-.208a7.974,7.974,0,0,0-.52-4,2.386,2.386,0,0,1-.206-1.28,6.081,6.081,0,0,0-.531-3.475c-.065-.132-.186-.284-.165-.407.264-1.526-.044-3.064.12-4.59.016-.147.117-.317.071-.435-.632-1.625.42-3.179.19-4.793a8.9,8.9,0,0,0-.25-1.489c-.363-1.117-.05-1.621,1.1-1.788a11.568,11.568,0,0,1,3.985.005,9.809,9.809,0,0,0,2.488.1,10.279,10.279,0,0,1,3.473.335,7.262,7.262,0,0,0,4.569-.248c.552-.218,1.1-.455,1.647-.678a2.972,2.972,0,0,1,2.574-.046c.247.122.568.323.853.163,1.482-.832,2.767-.126,3.993.569a5.071,5.071,0,0,0,2.987.6c.548-.037.833-.2.888-.745.064-.635.438-.761,1.039-.747a24.419,24.419,0,0,1,3.361.43,4.3,4.3,0,0,0,2.509-.037,2.763,2.763,0,0,1,2.009-.034,8.206,8.206,0,0,0,3.013.193c1.835-.055,2.692,1.253,1.842,2.851-.244.458-.3.8.144,1.148a1.01,1.01,0,0,1,.313.89c-.052,2.653-.106,5.305-.137,7.958,0,.471-.165.669-.629.576-.7-.141-.794.3-.81.83-.008.266.06.609-.077.782-.728.922-.152,1.5.475,2.091.224.209.455.426.321.762a3.679,3.679,0,0,0-.008,2.192,6.339,6.339,0,0,1-.3,3.5c-.157.444-.129.825.478.852.643.029.527.5.536.9.115,5.155.3,10.31.189,15.468-.113.378-.338.42-.674.261-.482-.227-.984-.409-1.465-.637A1.211,1.211,0,0,0,2363.294-492.486ZM2336.968-517.4l.033.031.131.134.14.152a.81.81,0,0,0,.405.423,3.913,3.913,0,0,0,.266.349q7.515,7.905,15.036,15.805c.821.862,1.519,2.049,2.529,2.464,1.044.43,2.4.082,3.619.116a.768.768,0,0,0,.873-.543c.944-2.377,1.9-4.749,2.89-7.107.25-.6.066-.871-.429-1.206q-8.736-5.9-17.446-11.844-5.024-3.407-10.067-6.784a.1.1,0,0,0-.116-.092l-.166-.106a1.683,1.683,0,0,0-.752-.506l-.014-.008c-.448-.325-.906-.636-1.34-.978a.712.712,0,0,0-.874-.08c-.563.3-1.142.579-1.714.867l-.166.053a1.484,1.484,0,0,0-.959.7l2.387,2.114,0,.005c1.43,1.609,2.878,3.2,4.452,4.674l0,0a4.576,4.576,0,0,0,1.11,1.19l.031.036Zm3.511,17.8-8.445-8.21c-.794,2.224-1.519,4.287-2.275,6.338a.7.7,0,0,0,.187.927c1.206,1.019,2.384,2.071,3.577,3.106.195.169.357.339.7.206C2336.249-498.027,2338.291-498.781,2340.479-499.6Zm9.612-25.443,8.322,6.459a36.226,36.226,0,0,1,.833-4.436c.495-1.573.118-2.586-1.332-3.286-.416-.2-.721-.679-1.266-.532C2354.513-526.266,2352.381-525.676,2350.091-525.047Z" transform="translate(-2324.241 534.126)" fill="#fff"/>
    <path id="Path_49" data-name="Path 49" d="M2859.815-485.6a13.3,13.3,0,0,1,6.882,1.377,10.109,10.109,0,0,1,5.6,7.481,19.35,19.35,0,0,1,.24,6.027,10.8,10.8,0,0,1-1.8,4.5c-.38.568-.892,1.05-1.252,1.628-1.329,2.131-3.374,3.135-5.678,3.854a16.078,16.078,0,0,1-8.981.04,10.363,10.363,0,0,1-3.636-2.035c-4.025-3.132-5.342-7.326-4.619-12.269a12.542,12.542,0,0,1,3.86-7.469,10.47,10.47,0,0,1,5.543-2.7A16.755,16.755,0,0,1,2859.815-485.6Zm-8.981,11.35a14.632,14.632,0,0,0,0,2.491,14.616,14.616,0,0,0,4.809,8.541,2.167,2.167,0,0,0,.524.323,11.224,11.224,0,0,0,5.234,1.223,5.876,5.876,0,0,0,3.692-1.362,8.612,8.612,0,0,0,2.856-5.331,21.655,21.655,0,0,0-.241-8.407,10.01,10.01,0,0,0-2.642-4.861,8.582,8.582,0,0,0-6.256-2.579,8.978,8.978,0,0,0-6.111,2.719.845.845,0,0,0-.246.358C2851.792-478.874,2850.49-476.76,2850.834-474.254Z" transform="translate(-2752.925 494.308)" fill="#fff"/>
    <path id="Path_50" data-name="Path 50" d="M2652.98-458.466a2.391,2.391,0,0,0,1.444-2.472c.025-6.675.008-13.351.022-20.026,0-.741-.519-1.076-1.1-1.511a27.057,27.057,0,0,1,3.869-.187c2.712-.023,5.431-.125,8.135.018a14.845,14.845,0,0,1,8.716,3.028,10.1,10.1,0,0,1,3.418,6.3,12.262,12.262,0,0,1-2.121,9.892,12.836,12.836,0,0,1-8.766,5.114,23.152,23.152,0,0,1-6.308.023,48.8,48.8,0,0,0-6.072-.18C2653.8-458.463,2653.393-458.466,2652.98-458.466Zm5.583-12.845h-.021c0,3.1,0,6.2,0,9.3a1.532,1.532,0,0,0,.322,1.169,4.092,4.092,0,0,0,2.92,1.517,33.921,33.921,0,0,0,4.632-.289,7.014,7.014,0,0,0,5.618-3.784,13.163,13.163,0,0,0,.163-12.048,10.448,10.448,0,0,0-6.016-5.261,17.6,17.6,0,0,0-6.792-.709c-.688.015-.841.245-.835.89C2658.581-477.453,2658.564-474.382,2658.564-471.311Z" transform="translate(-2594.137 491.921)" fill="#fff"/>
    <path id="Path_51" data-name="Path 51" d="M3211.541-486.909q1.563,3.9,3.114,7.763c1.286,3.2,2.587,6.4,3.848,9.612a.986.986,0,0,0,1.1.76c1.758-.045,3.517-.026,5.276-.008.287,0,.774-.2.819.26.054.558-.528.4-.808.42a27.131,27.131,0,0,0-4.2.8c-.854.216-.984.477-.534,1.247a11.2,11.2,0,0,0,1.772,2.86,3.244,3.244,0,0,0,2.242.874c.254.011.678-.161.686.32s-.392.349-.666.337c-2.265-.1-4.528-.077-6.792.008-.261.01-.592.083-.725-.209-.17-.375.22-.427.428-.544.337-.19.229-.422.126-.683-.47-1.19-.944-2.378-1.393-3.576a.761.761,0,0,0-.788-.552c-2.89-.17-5.78-.106-8.671-.066a.8.8,0,0,0-.881.672c-.276.942-.619,1.864-.917,2.8-.308.971-.062,1.312.954,1.363.149.008.3,0,.446.022.27.037.653-.072.589.43-.055.442-.374.392-.673.358a35.414,35.414,0,0,0-6.783.02c-.24.018-.646.234-.711-.252-.071-.533.352-.433.659-.46.357-.031.716-.037,1.069-.089a1.619,1.619,0,0,0,1.4-1.06q4.784-11.4,9.623-22.771C3211.23-486.472,3211.255-486.729,3211.541-486.909Zm-.888,6.633c-1.382,3.727-2.688,7.261-4.007,10.79-.209.56.093.586.511.583,2.355-.015,4.711-.03,7.067-.019.657,0,.671-.284.481-.781-.666-1.752-1.305-3.514-1.976-5.265C3212.073-476.684,3211.392-478.389,3210.653-480.276Z" transform="translate(-3041.917 495.361)" fill="#fff"/>
    <path id="Path_52" data-name="Path 52" d="M3458.171-466.8a31.55,31.55,0,0,1-.737,4.549,1.719,1.719,0,0,1-1.72,1.273c-2.114.176-4.232.134-6.347.135a68.527,68.527,0,0,1-7.15-.1c-.29-.03-.731.189-.846-.247-.092-.349.321-.443.532-.635,3.428-3.13,7.052-6.071,9.421-10.189,1.763-3.065,2.311-6.248.885-9.554a4.215,4.215,0,0,0-3.735-2.782,3.972,3.972,0,0,0-3.957,1.877,7.078,7.078,0,0,0-1.082,2.709c-.024.16-.05.391-.3.344-.173-.032-.187-.219-.194-.365-.073-1.339-.128-2.679-.215-4.018-.028-.433.264-.546.555-.7,2.584-1.388,5.341-1.32,8.108-.882a7.231,7.231,0,0,1,5.007,3.541,4.593,4.593,0,0,1,.512,2.242,12.174,12.174,0,0,1-2.177,7.478c-2.043,3.168-4.945,5.452-7.769,7.829-.3.256-.906.474-.766.872.147.417.745.168,1.132.162,2.176-.035,4.354-.056,6.525-.189a3.6,3.6,0,0,0,3.146-1.986C3457.247-465.917,3457.374-466.516,3458.171-466.8Z" transform="translate(-3241.398 494.343)" fill="#fff"/>
    <path id="Path_53" data-name="Path 53" d="M3040.372-480.7a1,1,0,0,1-.223-.948,24.42,24.42,0,0,1,.812-3.288c.109-.326.254-.726.658-.5a5.938,5.938,0,0,0,3.061.419c5.009.044,10.018.026,15.027.038a6.216,6.216,0,0,0,1.578-.274c.442-.115.658-.065.673.465.032,1.1.106,2.2.189,3.3a1.259,1.259,0,0,1-.441,1.113,1.614,1.614,0,0,1-.417-1.243,1.6,1.6,0,0,0-1.227-1.459c-2.022-.74-4.129-.368-6.2-.448-.6-.023-.387.5-.39.8q-.059,7.065-.086,14.13c-.008,1.669,0,3.339-.009,5.009s.541,2.252,2.166,2.419c.469.048,1.287-.287,1.314.364.016.387-.877.183-1.338.152a69.256,69.256,0,0,0-8.041.017c-.244.012-.684.222-.7-.251-.017-.39.388-.267.629-.3,1.516-.193,2.025-.744,2.028-2.246.014-6.38.009-12.759.049-19.139,0-.707-.226-.844-.859-.814-1.548.074-3.1.149-4.647.11a3,3,0,0,0-3.154,1.957,4.23,4.23,0,0,1-.315.539C3040.488-480.744,3040.451-480.738,3040.372-480.7Z" transform="translate(-2911.979 494.203)" fill="#fff"/>
  </g>
</svg>
