<svg xmlns="http://www.w3.org/2000/svg" width="35.656" height="35.656" viewBox="0 0 35.656 35.656"><path d="M17.828,3.209c4.754,0,5.319,0,7.206.1,4.828.223,7.087,2.511,7.31,7.31.089,1.887.1,2.451.1,7.206s0,5.334-.1,7.206c-.223,4.8-2.466,7.087-7.31,7.31-1.887.089-2.437.1-7.206.1s-5.319,0-7.206-.1c-4.843-.223-7.087-2.526-7.31-7.31-.089-1.887-.1-2.437-.1-7.206s0-5.319.1-7.206c.223-4.8,2.481-7.087,7.31-7.31C12.509,3.239,13.074,3.209,17.828,3.209Zm0-3.209c-4.843,0-5.452,0-7.354.1C4.011.4.4,4,.074,10.5,0,12.376,0,12.985,0,17.828s0,5.452.1,7.428C.4,31.734,4,35.329,10.5,35.656h7.324c4.843,0,5.452,0,7.354-.1,6.463-.3,10.073-3.892,10.4-10.4.074-1.872.074-2.481.074-7.324s0-5.452-.1-7.354C35.255,4.011,31.66.4,25.153.074,23.281,0,22.671,0,17.828,0Zm0,8.676a9.152,9.152,0,1,0,9.152,9.152h0A9.152,9.152,0,0,0,17.828,8.676Zm0,15.094a5.943,5.943,0,1,1,5.943-5.943A5.943,5.943,0,0,1,17.828,23.771ZM27.351,6.166A2.139,2.139,0,1,0,29.476,8.32h0A2.139,2.139,0,0,0,27.351,6.166Z" fill="#f9f9f9"/></svg>