<svg xmlns="http://www.w3.org/2000/svg" width="24.477" height="48.964" viewBox="0 0 24.477 48.964"><g transform="translate(-608.3 -224.067)"><path d="M630.243,236.9a8.233,8.233,0,0,0-6.262-3.045h-2.566c-.107-1.833.562-2.41,1.519-2.552a12.911,12.911,0,0,1,2.3-.031,17.842,17.842,0,0,0,2.393,0c2.583-.236,4.6-1.429,4.156-6.317a.976.976,0,0,0-1.943.174c.3,3.275-.878,4.058-2.39,4.2a16.569,16.569,0,0,1-2.133-.006,14.345,14.345,0,0,0-2.678.046c-1.98.3-3.38,1.322-3.193,4.493H617.1a8.223,8.223,0,0,0-6.262,3.045,10.986,10.986,0,0,0-2.534,7.115v18.852a10.986,10.986,0,0,0,2.534,7.115,8.233,8.233,0,0,0,6.262,3.045h6.886a8.233,8.233,0,0,0,6.262-3.045,10.986,10.986,0,0,0,2.534-7.115V244.019A10.987,10.987,0,0,0,630.243,236.9Zm-17.925,1.261a6.3,6.3,0,0,1,4.777-2.347h3.385a.972.972,0,0,0,.11,0h3.391a6.3,6.3,0,0,1,4.777,2.35,9.028,9.028,0,0,1,2.06,5.852v1.937a26.836,26.836,0,0,1-10.711,2.442,21.38,21.38,0,0,1-9.848-2.4v-1.984A9.034,9.034,0,0,1,612.318,238.164Zm16.44,30.552a6.3,6.3,0,0,1-4.777,2.35H617.1a6.292,6.292,0,0,1-4.777-2.347,9.027,9.027,0,0,1-2.06-5.851v-14.7a23.182,23.182,0,0,0,9.848,2.177,28.294,28.294,0,0,0,10.711-2.273v14.79A9.034,9.034,0,0,1,628.759,268.716Z" transform="translate(0 0)" fill="#fff"/></g></svg>