<svg xmlns="http://www.w3.org/2000/svg" width="181.021" height="50.491" viewBox="0 0 181.021 50.491">
  <g id="Group_525" data-name="Group 525" transform="translate(-224.989 -5057.187)">
    <path id="Path_1" data-name="Path 1" d="M788.317,450.755q-24.493,0-48.985.027c-1.022,0-1.226-.27-1.214-1.24.055-4.56.042-9.122.007-13.683-.006-.736.186-.928.926-.927q49.324.029,98.648,0c.743,0,.93.2.924.929-.034,4.6-.054,9.2.011,13.8.015,1.024-.355,1.118-1.219,1.117Q812.866,450.736,788.317,450.755Zm23.916-7.94-.267.034c-.224-1.568-.509-3.13-.651-4.705-.084-.932-.609-.975-1.276-.881-.885.125-.49.751-.41,1.209.515,2.939,1.054,5.874,1.57,8.813.1.557.049,1.135.891,1.161.875.028,1.049-.519,1.115-1.179a9.264,9.264,0,0,1,.33-2.216,6.147,6.147,0,0,1,.669,2.232c.038.637.252,1.179,1.115,1.19.909.011.78-.7.866-1.157.557-2.974,1.064-5.958,1.576-8.94.076-.445.342-1.013-.444-1.108-.676-.082-1.229-.071-1.324.889-.158,1.6-.463,3.191-.706,4.786a32.117,32.117,0,0,1-.728-4.683c-.048-.49.054-.945-.739-.934-.683.009-1.023.149-1.089.87C812.592,439.736,812.4,441.275,812.233,442.815Zm-25.24-.978-.162,0c-.407-1.268-.833-2.53-1.211-3.807a1.041,1.041,0,0,0-1.2-.758c-.643.018-.619.5-.619.971,0,3.155.016,6.31-.019,9.464-.008.715.325.779.9.773s1.021.005.974-.806c-.064-1.121-.016-2.248-.016-3.373a19.6,19.6,0,0,1,1.335,3.595c.2.707.729.594,1.253.617.661.029.465-.547.5-.792a17.323,17.323,0,0,0,.059-2.247c.006-2.294-.015-4.588.02-6.881a1.157,1.157,0,0,0-1.332-1.287c-.761.041-.456.8-.469,1.274C786.972,439.662,786.993,440.75,786.993,441.837Zm13.348.106a30.683,30.683,0,0,1-1.516-4.046c-.257-.641-.7-.677-1.25-.595-.44.065-.614.276-.593.749.141,3.155.2,6.312.029,9.468-.038.714.282.943,1.011.971.8.03.984-.308.977-.979-.01-1.019,0-2.038,0-3.053.266-.005.268.152.311.3.3,1,.676,1.983.908,3,.2.854.769.79,1.376.747.724-.052.359-.617.369-.931.043-1.315.018-2.634.018-3.951,0-1.806-.023-3.613.01-5.418.016-.9-.732-.829-1.2-.905-.712-.116-.425.551-.436.884C800.318,439.343,800.341,440.509,800.341,441.943ZM821.2,443.86l.2-.046c.4,1.352.839,2.694,1.178,4.06.211.849.816.585,1.335.621.692.049.437-.508.439-.793.021-3.163-.024-6.327.027-9.489.015-.959-.694-.867-1.174-.92-.732-.079-.5.587-.506.978-.026,1.177-.01,2.354-.01,3.6-.378-.146-.342-.46-.417-.676-.382-1.094-.735-2.2-1.1-3.3A.882.882,0,0,0,820,437.3c-.348.079-.649.186-.644.715.033,3.238.028,6.476.009,9.715-.005.856.56.684,1.077.731.6.054.782-.171.765-.761C821.172,446.421,821.2,445.14,821.2,443.86Zm-17.519.953c.074,3.682.074,3.682,3.089,3.642,1.255-.017,1.5-.274,1.563-1.5.071-1.4-.263-2.833.354-4.2a1.025,1.025,0,0,0-.07-.868,2.368,2.368,0,0,1-.288-1.512c-.052-3.611.519-2.994-3.207-3.131-1.106-.041-1.477.442-1.449,1.477C803.732,440.913,803.374,443.111,803.68,444.813ZM772.76,446c0-.716,0-1.432,0-2.148,0-.223,0-.479.331-.472.239,0,.456.076.491.357a8.294,8.294,0,0,1,.069.895c.015,1.052.018,2.105.024,3.157,0,.872.673.605,1.145.664.614.077.751-.329.616-.77a10.416,10.416,0,0,1-.042-2.535,19.176,19.176,0,0,1-.235-2.852c.129-1.238.09-2.49.272-3.723.147-1-.4-1.342-1.318-1.325-.753.014-1.509.022-2.259-.03-.6-.042-.8.188-.783.771.035,1.089.072,2.183,0,3.269-.038.6-.624,1.172-.248,1.8a2.674,2.674,0,0,1,.276,1.5c-.006.98.006,1.959-.025,2.938-.022.671.127.992.93.99.876,0,.75-.5.749-1.021Q772.756,446.733,772.76,446Zm19.524-4.774c0-1.289.018-2.269-.006-3.247-.021-.863-.8-.556-1.238-.69-.482-.149-.484.243-.55.681-.192,1.289.053,2.565-.017,3.851-.1,1.912.017,3.836-.007,5.754-.01.818.487.848,1.068.853.7.006.752-.468.749-1-.005-1.089-.009-2.178.005-3.267.006-.423-.158-1.034.521-1.035s.655.6.661,1.091c.012,1.017.007,2.033,0,3.05a1.045,1.045,0,0,0,1.152,1.186c.888.034.664-.677.685-1.1.062-1.236.016-2.478.026-3.717,0-.432-.054-.943-.375-1.137-1.213-.733-.716-1.6-.345-2.522.221-.551.264-1.173.47-1.732.354-.963-.235-.972-.9-1s-.66.506-.8.9A13.89,13.89,0,0,1,792.283,441.225Zm-15.011,1.446v3.048c0,2.588,0,2.587,2.589,2.594.181,0,.363.073.543.067,1.338-.04,1.549-.248,1.552-1.6.006-2.889-.013-5.778.012-8.667,0-.437-.16-.612-.533-.672-.81-.131-1.317.061-1.217,1.042.255,2.5-.054,4.994,0,7.491.012.54.018.952-.8.884-.884-.073-.5-.661-.459-.956.379-2.619-.056-5.227-.039-7.839,0-.781-.5-.778-1.057-.821-.678-.053-.59.392-.59.8Q777.272,440.359,777.272,442.671Zm-29.777-2.142c0-.714-.025-1.43.007-2.143.033-.748-.287-1.128-1.036-1.132-.94,0-1.881.016-2.821-.008-.479-.012-.673.156-.672.646.005,1.759-.1,3.524-.068,5.274.023,1.405.04,2.819.062,4.228.012.755.269,1.081,1.061,1.078.775,0,.845-.425.828-1.016a15.141,15.141,0,0,0-.024-2.027c-.195-1.173.09-1.7,1.392-1.486.9.151,1.3-.376,1.274-1.271C747.477,441.959,747.495,441.244,747.495,440.529Zm7.191,7.88c.446-.04.88-.192.939-.81.028-.3.088-.592.089-.887,0-.36.12-.592.507-.583.3.007.458.159.481.492.031.444.122.884.19,1.326.106.692.662.511,1.065.485.337-.022.8-.089.716-.634q-.768-5-1.549-9.99c-.1-.651-.579-.548-1.03-.554a.778.778,0,0,0-.914.752c-.44,3.168-.865,6.339-1.37,9.5C753.685,448.288,754.014,448.4,754.686,448.409Zm76.745.046h.769c1.542,0,1.608-.123,1.688-1.657a5.14,5.14,0,0,0-1.323-4.227,18.762,18.762,0,0,1-1.115-1.546,2.339,2.339,0,0,1-.351-1.6c-.007-.576.458-.529.79-.587.516-.09.418.328.366.593-.155.792.438.672.879.781.771.19.458-.5.621-.776.209-.353-.157-.743.015-1.185.238-.609-.078-1.019-.77-1.032-.864-.016-1.732-.068-2.589,0-.424.035-.936.244-.913.824.067,1.681-.272,3.464,1.216,4.8a5.947,5.947,0,0,1,.8,1.085c.433.625.976,1.184.606,2.095-.13.322.394.915-.471.88-.659-.026-.726-.327-.561-.89.173-.589-.291-.687-.717-.71-.353-.019-.9-.16-.925.354a5.73,5.73,0,0,0,.2,2.489C829.955,448.838,830.888,448.307,831.431,448.455Zm-66.057-2.615c0,2.671,0,2.671,2.632,2.612a2.932,2.932,0,0,1,.451-.017c.639.086.761-.271.763-.807s-.181-.962-.75-.861c-1.34.238-1.492-.476-1.359-1.516a2.99,2.99,0,0,0-.028-.788c-.1-.731.081-1.138.938-1.025.565.074,1.123.106,1.1-.807-.022-.829-.46-.956-1.089-.87-.84.116-1-.167-.991-1.02.008-1.212-.026-2.122,1.635-1.8.729.141.438-.544.527-.944.118-.533-.109-.712-.546-.725-.893-.027-1.786-.009-2.679-.019-.336,0-.656.076-.646.456.049,1.788-.252,3.573-.178,5.339C765.192,443.987,765.33,444.964,765.374,445.84Zm-4.012-5.61a7.6,7.6,0,0,1-.737-2.264c-.256-1.052-1.029-.567-1.543-.5-.638.088-.168.606-.084.851,1.008,2.945,1.911,5.894,1.368,9.075-.083.487-.1,1.006.7.931.644-.06,1.2.05,1.167-.974-.063-2.163-.26-4.352.608-6.447.37-.893.55-1.862.873-2.777.172-.487.128-.746-.425-.827-.709-.1-1.263-.035-1.41.841C761.769,438.8,761.562,439.442,761.362,440.23Zm-10.341,2.031h.011c0-1.352-.046-2.706.018-4.055.036-.76-.24-.956-.949-.968-.79-.014-.925.348-.914,1.032.041,2.693.047,5.388.048,8.082,0,2.328.021,2.322,2.359,2.043.734-.088.794-.42.8-1.021.007-.739-.437-.679-.891-.6-.542.1-.545-.063-.511-.576C751.078,444.892,751.021,443.574,751.021,442.261Zm76.7-3.869c-.094-.253.266-.757-.237-.9a1.861,1.861,0,0,0-1.209.016c-.438.208-.227.748-.169,1.119.065.416.329.781.123,1.252-.106.241.018.579.377.512.233-.044.588.277.716-.212A3.822,3.822,0,0,0,827.717,438.391Z" transform="translate(-472.912 4622.256)" fill="#fff"/>
    <path id="Path_2" data-name="Path 2" d="M1173.026,538.894a83.6,83.6,0,0,1,.266,9.072c-.015,1.13-.027,2.26.006,3.389.021.713-.221,1.041-.977,1.011a25.091,25.091,0,0,0-2.932.018c-.792.062-1.1-.266-1.125-.995a17.7,17.7,0,0,1-.1-3.062c.2-1.426-.141-2.815-.059-4.223a5.447,5.447,0,0,1,.3-1.269,6.227,6.227,0,0,0-.09-2.076c-.138-2.487.088-4.967.013-7.449-.064-2.113-.127-4.226-.174-6.339-.033-1.492-.03-2.984-.064-4.476a.532.532,0,0,1,.539-.59,19.459,19.459,0,0,0,2.417-.085c1.382-.06,1.839.659,2.174,1.728q1.632,5.21,3.285,10.413a4.919,4.919,0,0,0,.641.943c0-1.372,0-2.513,0-3.654-.005-2.883,0-5.765-.03-8.647-.007-.638.2-.821.841-.851,1.1-.051,2.149.308,3.238.328.693.013.531.6.537,1.012.035,2.1.064,4.193.066,6.29q.011,10.427,0,20.853a4.7,4.7,0,0,1-.184,1.986c-.391.786-1.177.066-1.788.111-2.34.17-2.291.1-2.927-2.03-1.09-3.65-2.253-7.278-3.389-10.914-.053-.169-.138-.328-.208-.492Z" transform="translate(-805.576 4555.09)" fill="#fff"/>
    <path id="Path_3" data-name="Path 3" d="M684.058,546.03c.212-5.452.277-11.174.223-16.9a10,10,0,0,1-.061-1.793c.212-1.184-.573-1.067-1.2-.913a10,10,0,0,1-1.439.106.721.721,0,0,1-.826-.729c-.1-1.044-.137-2.1-.185-3.144-.029-.64.245-.93.935-.927,3.893.022,7.789-.083,11.678.042,2.39.077,4.767-.144,7.154-.043,1.572.066,1.665.148,1.75,1.713.046.853.055,1.7.032,2.55-.011.418-.09.652-.686.494a4.9,4.9,0,0,0-1.871.045c-.521.074-.546.549-.553.974-.039,2.436-.06,4.869-.164,7.306-.163,3.827,0,7.667-.01,11.5-.005,1.642,0,3.286-.08,4.93-.033.679-.327.749-.765.788-.934.083-1.875.087-2.809.175-1.028.1-1.295-.42-1.284-1.341q.12-10.334.2-20.668c.008-.978-.113-1.966-.012-2.932.093-.892-.542-1.1-1-.918a7.808,7.808,0,0,1-2.979.162c-.768.015-1.009.368-1.006,1.018.012,2.4-.148,4.8-.1,7.189.06,3.131-.188,6.256-.005,9.391.138,2.361-.1,4.742-.111,7.114,0,.551-.206.776-.674.811-1.011.075-2.025.1-3.036.171-.863.063-1.124-.4-1.119-1.162C684.065,549.461,684.058,547.881,684.058,546.03Z" transform="translate(-428.387 4555.123)" fill="#fff"/>
    <path id="Path_4" data-name="Path 4" d="M1026.6,543.453c.074-.983,0-2.108.057-3.238a6.115,6.115,0,0,0-.541-2.995c-.624-1.333-.935-2.851.409-4.1.228-.211.072-.507.059-.754-.147-2.981-.022-5.961.013-8.941a2.282,2.282,0,0,1,2.311-2.361c2.913.012,5.826.084,8.736.2,1.115.043,1.621.821,1.636,2.346.025,2.631.022,5.262.017,7.893a4.416,4.416,0,0,0,.567,2.017,4.549,4.549,0,0,1-.081,4.011,3.47,3.47,0,0,0-.49,1.632c-.014,2.786-.033,5.571,0,8.356a7.418,7.418,0,0,1-.439,2.511,1.975,1.975,0,0,1-1.8,1.492c-2.608.075-5.22.065-7.829.035-1.568-.018-2.554-1.742-2.6-2.906C1026.55,546.971,1026.6,545.282,1026.6,543.453Zm4.732-12.445h.029c0,1.949.013,3.9,0,5.848-.021,2.388-.076,4.776-.094,7.165a6.688,6.688,0,0,0,.144,1.568c.115.489-.624,1.13.194,1.451.483.19.963-.273,1.53-.145,1.43.323,1.479.277,1.284-1.137-.266-1.926.012-3.852-.071-5.784-.176-4.1-.074-8.21-.038-12.316.02-2.205.066-2.177-2.108-2.109-.709.022-.884.319-.874.954C1031.351,528,1031.334,529.506,1031.334,531.008Z" transform="translate(-695.32 4555.612)" fill="#fff"/>
    <path id="Path_5" data-name="Path 5" d="M1240.423,540.527c-.12-2.948.065-6.354-.115-9.763-.147-2.791-.041-5.594-.1-8.391-.012-.537.143-.639.6-.639,3.236,0,6.472-.044,9.708-.021a2.12,2.12,0,0,1,2.1,2.317c.017,4.144.009,8.288.01,12.432q0,6.259,0,12.519c0,2.012-.87,3-2.88,3.05-2.758.065-5.519.013-8.278.017-1.183,0-1.007-.941-1.034-1.611-.065-1.567-.016-3.139-.015-4.709S1240.423,542.564,1240.423,540.527Zm4.916-14.651a31.258,31.258,0,0,0,.006,4.953c.025,5.293.161,10.586-.1,15.878-.029.588.267,1.323.831,1.2.609-.136,1.545.171,1.849-.762a8.449,8.449,0,0,0,.206-3.731,33.662,33.662,0,0,1-.069-4.911c.011-1.391-.084-2.806-.06-4.2.032-1.893,0-3.8-.042-5.7-.021-.929.629-2.1-.634-2.763C1246.611,525.458,1245.924,526.053,1245.338,525.876Z" transform="translate(-861.367 4555.121)" fill="#fff"/>
    <path id="Path_6" data-name="Path 6" d="M561.14,542.857c.312-.465-.211-1.139.383-1.533.019.027.047.081.057.078.1-.034.107-.082,0-.122-.009,0-.041.048-.062.074-.03-.023-.088-.047-.086-.068.151-2.19-1.138-4.153-1.012-6.327.037-.646.037-1.4.845-1.728.222-.091.229-.366.2-.6-.378-3.589-.169-7.192-.248-10.788-.009-.419.129-.5.57-.576,1.471-.247,2.933.256,4.38,0a35.2,35.2,0,0,1,4.415,0c1.32-.068,2.222.379,2.2,2.124-.025,2.43-.093,4.857-.182,7.286-.036.994.342,2-.086,2.987-.116.268-.11.672-.3.811-1.133.807-.3,1.44.206,1.987a2.225,2.225,0,0,1,.574,1.607c0,2.844-.01,5.69-.1,8.532a10.793,10.793,0,0,1-.165,3.216,2.207,2.207,0,0,1-1.948,1.609,58.527,58.527,0,0,1-8.765.125c-.7-.023-.69-.222-.688-.82.007-2.035-.1-4.07-.164-6.105a.143.143,0,0,0,.006-.2,2.511,2.511,0,0,0-.054-1.4A.1.1,0,0,0,561.14,542.857Zm6.933-1.739c0-.867,0-1.734,0-2.6,0-.25.062-.527-.27-.667-1.219-.515-1.992.015-2.04,1.333-.091,2.511.238,5.032-.162,7.532-.1.644.511.646.73.991.52-.552,1.425.386,1.86-.479a.565.565,0,0,0,.076-.311C567.961,544.991,568.232,543.048,568.073,541.118ZM566.9,525.3c-.934-.247-1.046.3-1.055,1.237a40.191,40.191,0,0,0-.034,5.5c.149,1.178.623,1.682,1.781,1.544.448-.054.727-.277.637-.726-.38-1.889.028-3.767.054-5.649C568.306,525.4,568.26,525.286,566.9,525.3Z" transform="translate(-335.427 4555.537)" fill="#fff"/>
    <path id="Path_7" data-name="Path 7" d="M1103.255,526.776c0,3.2.043,6.406-.016,9.608-.036,2-.063,3.984.037,5.981a18.37,18.37,0,0,1-.326,3.479c-.209,1.457.028,1.73,1.42,1.527a1.86,1.86,0,0,1,1,.065c.86.4.971.4.914-.55-.08-1.346.157-2.671.134-4.021-.035-2.039.12-4.091.078-6.143-.088-4.364-.132-8.728-.185-13.093-.019-1.517.448-1.91,2.042-1.809a11.04,11.04,0,0,0,1.8.009c.876-.089,1.031.657.974,1.091a35.381,35.381,0,0,0,.056,5.4c.088,4.155.207,8.3-.015,12.461-.152,2.838.029,5.687-.16,8.529-.115,1.726-1.282,2.566-3.017,2.478-2.138-.109-4.289.069-6.434.07-.8,0-1.644.232-2.383-.374a3.177,3.177,0,0,1-1.01-2.64c-.008-3.683.1-7.367.141-11.05q.068-5.666.1-11.331c.007-1.34-.038-2.68-.071-4.02-.017-.706.1-1.169,1.005-.9.922.271,1.886-.24,2.833.094a1.308,1.308,0,0,1,.971,1.418c-.023,1.239-.006,2.479-.006,3.719Z" transform="translate(-751.473 4555.305)" fill="#fff"/>
    <path id="Path_8" data-name="Path 8" d="M967.314,521.823c1.43,0,2.859-.016,4.289,0,1.339.019,1.992.584,1.989,1.876a41.3,41.3,0,0,1-.206,6.265,11.03,11.03,0,0,0,.145,2.308c.081,1.272.049,2.518-1.141,3.35-.361.252-.08.311.073.448a4.247,4.247,0,0,1,1.356,3.607c-.083,2.136.218,4.3,0,6.415a24.912,24.912,0,0,0,.135,3.879c.088,1.882-.234,2.169-2.141,2.125-.4-.009-.876-.276-1.193-.138-1.386.6-1.439-.381-1.6-1.251a5.044,5.044,0,0,1-.046-.9c-.006-3.451-.065-6.9.018-10.354.029-1.217-.7-1.044-1.413-1.123-.9-.1-.96.47-.968,1.129-.043,3.889-.125,7.778-.118,11.667,0,.825-.289,1.046-1.017,1.018-.966-.037-1.934-.065-2.9-.052-.288,0-.479-.094-.472-.33.077-2.938-.158-5.87-.091-8.814.04-1.741.284-3.54-.537-5.356-.484-1.071-.879-2.811.606-3.916a.54.54,0,0,0,.15-.494c-.324-.5-.114-1.03-.116-1.535-.016-2.953-.229-5.9-.128-8.86.029-.857.293-1.024,1.032-1.007,1.432.033,2.865.01,4.3.01Zm.674,12.234c.826.12,1.032-.174,1.01-.991-.056-2.164.014-4.332.063-6.5.013-.58-.216-.833-.776-.8-.371.025-.742.113-1.112.106-.475-.009-.558.228-.543.632.074,2.049-.211,4.088-.076,6.149C966.628,533.783,967.037,534.118,967.988,534.057Z" transform="translate(-645.381 4555.059)" fill="#fff"/>
    <path id="Path_9" data-name="Path 9" d="M908.418,541.073c0,2.356.012,4.711,0,7.067a2.675,2.675,0,0,1-2.9,2.839q-3.08.007-6.16,0a2.7,2.7,0,0,1-2.979-2.643c-.163-2.306.009-4.627-.034-6.93-.035-1.863.059-3.716.112-5.567.108-3.787-.334-7.56-.2-11.34a5.167,5.167,0,0,1,.584-3.008c.877-1.251,2.177-1.2,3.446-1.127,1.677.1,3.348-.017,5.017,0,2.3.022,3.152.584,2.979,2.741-.108,1.347-.041,2.709-.045,4.065,0,.464-.075.645-.674.731-.871.124-1.712-.132-2.573.024-.393.071-.932-.106-.615-.783.023-.05-.051-.137-.056-.209-.179-2.611-.194-2.625-2.74-2.409-.544.046-.636.349-.6.853.306,4.949.309,9.906.249,14.861-.024,1.977.262,3.97-.209,5.933a.331.331,0,0,0,.018.209,5.131,5.131,0,0,0,2.658.3c.432-.316.5-.691.346-1.323a10.819,10.819,0,0,1-.215-3.437c.127-1.425-.056-2.842.059-4.26a.9.9,0,0,0-.3-.682c-.348-.262-.844-.35-.8-.947.073-1.005-.232-2.068.211-3,.271-.573,1.04-.4,1.581-.459.847-.091,1.719.051,2.566-.04,1.088-.118,1.328.458,1.323,1.346q-.008,1.8-.007,3.6t0,3.608Z" transform="translate(-595.233 4556.187)" fill="#fff"/>
    <path id="Path_10" data-name="Path 10" d="M636.119,552.073c-2.546.073-2.529.072-2.69-2.385-.066-1.008-.254-2.007-.329-3.014-.045-.6-.49-.9-.875-.736-.583.247-1.636-.444-1.746.814-.117,1.336-.24,2.673-.411,4-.1.791-.266,1.477-1.43,1.261a14.684,14.684,0,0,0-2.646.05c-.7,0-1.061-.227-.94-1.091.451-3.216.881-6.432,1.445-9.631.439-2.5.71-5.022,1.085-7.53.237-1.588.562-3.163.787-4.752.171-1.209.162-2.448.39-3.643a7.89,7.89,0,0,1,.757-3.084.948.948,0,0,1,.962-.539,17.672,17.672,0,0,0,2.443-.036c.874-.1,1.2.245,1.317,1.079q.8,5.473,1.684,10.934c.646,3.989,1.435,7.959,1.953,11.964a51.922,51.922,0,0,1,.562,5.23c.022.816-.526.965-1.077,1.091A5.686,5.686,0,0,1,636.119,552.073Zm-4.135-17.989a1.059,1.059,0,0,0-.522.989,38.557,38.557,0,0,1-.659,6.225c-.072.419.106.551.434.6a7.725,7.725,0,0,1,1.083.128c.564.178.616-.118.5-.5a27.337,27.337,0,0,1-.448-4.064C632.2,536.351,632.516,535.17,631.985,534.084Z" transform="translate(-385.416 4555.092)" fill="#fff"/>
    <path id="Path_11" data-name="Path 11" d="M1318.411,524.922q0,1.351,0,2.7c0,.6-.13,1.032-.9.921-.511-.073-1.032.013-1.558-.108-.572-.131-1.52.232-1.7-.187a4.375,4.375,0,0,1-.085-2.363c.174-.927.088-1.352-.955-1.021-.7.222-1.611-.328-2.113.355-.418.568.011,1.39-.144,2.068-.534,2.326,1.2,3.718,2.3,5.257,1.654,2.307,3.179,4.712,4.967,6.929a1.8,1.8,0,0,1,.17,2.089c-.445.713.281,1.326.21,2.057-.2,2.052.319,4.15-.417,6.179a1.444,1.444,0,0,1-1.283,1.091,64.889,64.889,0,0,1-9.068.017c-1.017-.088-1.274-.681-1.239-1.674a51.757,51.757,0,0,0-.1-5.379c-.083-1.207.054-1.47,1.246-1.49a16.391,16.391,0,0,1,2.787.258c.357.055.384.306.386.575a10.312,10.312,0,0,1-.18,2.564c-.062.252-.215.544.17.628a10.074,10.074,0,0,0,2.146.356c.719,0,1.418-.073.872-1.265a6.075,6.075,0,0,1-.014-2.557,3.923,3.923,0,0,0-.674-2.576c-2.033-3-4.261-5.864-6.284-8.871-.7-1.037-.271-2.175-.273-3.276a31.163,31.163,0,0,0-.071-4c-.329-2.5.531-3.96,3.215-3.972,1.915-.008,3.83.015,5.745.017,2.068,0,3.179.531,2.887,2.76a14.774,14.774,0,0,0-.012,1.909Z" transform="translate(-912.646 4556.258)" fill="#fff"/>
    <path id="Path_12" data-name="Path 12" d="M839.647,541.7c0,1.751.021,3.5-.011,5.253-.012.678.354.847.905.85,1.2.008,2.4.016,3.6,0,.849-.014,1.273.413,1.249,1.222a22.719,22.719,0,0,1-.145,2.46c-.078.564-.337.7-.777.659-2.849-.254-5.7.19-8.557-.063-1.065-.094-1.23-.648-1.13-1.343a28.841,28.841,0,0,0,0-4.038c.012-2.15.067-4.3.12-6.45a2.9,2.9,0,0,0-.592-1.967,2.875,2.875,0,0,1-.243-2.044c.073-.833-.423-1.8.568-2.466.15-.1.069-.568.07-.866q.011-5,.012-10c0-1.066.288-1.256,1.348-1.207,1.448.067,2.9-.014,4.353.016s2.923.093,4.38.2c.536.038,1,.282.8.989a1.119,1.119,0,0,0-.005.225c-.065.963.423,2.287-.212,2.792-.6.479-1.869.124-2.843.133a11.339,11.339,0,0,1-1.918-.01c-.9-.149-1.011.406-1.023,1.021-.033,1.682-.018,3.365-.035,5.048a2.368,2.368,0,0,1-.13.653.881.881,0,0,0,.965,1.2c1.275-.034,2.552-.027,3.827-.049.617-.011.981.135.895.89-.11.953,0,1.918-.063,2.885-.051.769-.335.656-.76.66-1.243.013-2.486.035-3.728.009-.632-.013-.882.213-.849.856.041.826.01,1.657.01,2.485Z" transform="translate(-547.095 4555.138)" fill="#fff"/>
    <path id="Path_13" data-name="Path 13" d="M792.8,524.935c0,6.9-.021,13.809.04,20.713,0,.5-.8,1-.077,1.46.5.318,1.05-.1,1.6-.1,1.921-.005,1.989.024,1.988,1.927a6.718,6.718,0,0,1-.006.79c-.1.869-.022,1.589-1.468,1.591-1.874,0-3.768-.009-5.652.1-1.36.078-1.553-.174-1.557-1.53-.01-3.656.011-7.312.011-10.968s-.152-7.333.042-10.985c.1-1.879-.14-3.73-.071-5.6.038-1.035.492-1.314,1.252-1.441,1.056-.176,2.124.244,3.2-.027.481-.121.48.406.537.7A15.537,15.537,0,0,1,792.8,524.935Z" transform="translate(-511.206 4555.787)" fill="#fff"/>
    <path id="Path_14" data-name="Path 14" d="M1035.847,456.45c0-1.051.026-2.1-.011-3.153-.018-.5.091-.808.637-.806.614,0,.318.488.328.734a60.05,60.05,0,0,0,.2,6.9c.043.286-.134.469-.386.357-.287-.127-.846.185-.813-.538.054-1.161.015-2.326.015-3.489Z" transform="translate(-703.229 4608.672)" fill="#fff"/>
    <path id="Path_15" data-name="Path 15" d="M892.057,452.923c0,.48-.021.961.007,1.439.018.3.009.5-.381.466-.285-.024-.515-.044-.511-.413q.011-1,0-2.007c0-.323.016-.58.454-.587.413-.007.512.185.479.543-.017.184,0,.372,0,.558Z" transform="translate(-591.326 4609.189)" fill="#fff"/>
    <path id="Path_16" data-name="Path 16" d="M767.592,453.809c0-.41.007-.821,0-1.231-.007-.308-.056-.61.415-.6.395,0,.389.271.394.531.013.847-.029,1.7.039,2.541.037.455-.227.392-.453.378-.21-.013-.565.1-.45-.39a7.053,7.053,0,0,0,.077-1.223Z" transform="translate(-495.652 4609.071)" fill="#fff"/>
    <path id="Path_17" data-name="Path 17" d="M816.967,466.329c.049.749.1,1.5.145,2.246.013.232,0,.474-.348.406-.208-.041-.337-.155-.305-.385q.157-1.139.318-2.276Z" transform="translate(-533.52 4597.972)" fill="#fff"/>
  </g>
</svg>
