<svg xmlns="http://www.w3.org/2000/svg" width="244.464" height="69.931" viewBox="0 0 244.464 69.931"><g transform="translate(0 0)"><path d="M2634.689,476.9c4.059.162,8.05.253,12.029.517,1.5.1,2.306.766,3.71,2.138,3.934-3.361,8.608-3.759,13.674-1.123V477.14h5.72c.779,6.317,1.556,12.621,2.359,19.14.97-6.233,1.918-12.24,2.824-18.255.109-.723.331-1.018,1.1-.99,1.557.057,3.118.017,4.747.017.886,6.3,1.76,12.508,2.633,18.714l.231,0c.238-1.905.458-3.813.716-5.716.555-4.1,1.118-8.2,1.72-12.3a1,1,0,0,1,.677-.666c1.628-.059,3.259-.031,5.035-.031-.284,1.917-.543,3.727-.821,5.534-.443,2.888-.93,5.77-1.315,8.666a1.885,1.885,0,0,0,.523,1.425c1.856,1.683,3.8,3.267,5.683,4.925a13.441,13.441,0,0,1,1.93,2.039,3.935,3.935,0,0,1,.741,1.8c.131,1.136.211,2.385-.919,3.13a3.926,3.926,0,0,1-3.806.2,2.308,2.308,0,0,1-1.061-1.425,33.917,33.917,0,0,1-.57-3.553c-1.084.135-2.189.224-3.27.438a1.169,1.169,0,0,0-.738.758c-.31,1.64-.555,3.293-.762,4.949a2.048,2.048,0,0,0,.245,1.165,7.039,7.039,0,0,0,4.259,3.18h-11.267q-1.414-9.408-2.837-18.877l-.212-.018c-.25,1.554-.505,3.107-.748,4.663-.708,4.536-1.4,9.075-2.141,13.605a1.06,1.06,0,0,1-.764.665c-1.771.06-3.545.031-5.428.031-.46-3.324-.914-6.612-1.368-9.9-.344,4.091-.914,8.121-5.617,9.49-3.937,1.146-7.788.959-11.067-2.136-1.452,1.839-3.5,2.337-5.668,2.375-3.367.059-6.736.016-10.177.016Zm20.04,16.727h.024c0,2.887-.079,5.777.027,8.66.075,2.044,1.18,2.913,3.206,2.841a2.685,2.685,0,0,0,2.83-2.387,9.694,9.694,0,0,0,.193-1.861q.023-7.255,0-14.51a9.065,9.065,0,0,0-.2-1.859,2.485,2.485,0,0,0-2.639-2.178c-2.286-.105-3.335.743-3.417,3.05C2654.654,488.129,2654.729,490.88,2654.729,493.628ZM2640.6,505.355c.711,0,1.3,0,1.894,0,.348,0,.7,0,1.044-.024,1.491-.119,2.354-.846,2.406-2.241.074-1.947.064-3.9,0-5.848a1.822,1.822,0,0,0-1.789-1.953c-1.156-.145-2.332-.141-3.556-.2Zm-.007-15.082c1.107-.052,2.11-.044,3.1-.158a1.95,1.95,0,0,0,2.028-2.072,31.528,31.528,0,0,0,0-3.852,1.977,1.977,0,0,0-2.006-2.114,26.525,26.525,0,0,0-3.118-.024Z" transform="translate(-2576.209 -458.788)" fill="#fff"/><path d="M2382.474,511.206l-1.078-5.985c-1.38,0-2.735-.041-4.083.037-.245.014-.606.482-.669.791-.347,1.7-.618,3.413-.923,5.163h-9.943q-1.066-4.176-2.132-8.359c-.292-1.146-.648-2.281-.84-3.443-.188-1.143-.722-1.545-1.947-1.156V511.18h-5.943V478.173c.059-.047.11-.126.16-.126,3.652.055,7.319-.072,10.949.231,3.315.277,5.033,1.97,5.645,5.211a24.157,24.157,0,0,1-.083,9.647,5.746,5.746,0,0,1-2.651,3.845,1.057,1.057,0,0,0-.421.875c.662,2.763,1.384,5.512,2.285,8.278q2.5-14.1,5.007-28.229h6.616l5.405,30.212.212-.019V478.065h5.862v33.141ZM2360.9,483.292v9.79c1.174,0,2.283.08,3.374-.025a1.7,1.7,0,0,0,1.691-1.682c.055-2.075.066-4.154-.021-6.227a1.89,1.89,0,0,0-1.923-1.84C2363.028,483.227,2362.021,483.292,2360.9,483.292Zm18.37,4.894-.158-.013-1.818,12.089h3.652Z" transform="translate(-2354.918 -459.733)" fill="#fff"/><path d="M2564.168,511.64c-1.839,0-3.608.033-5.373-.039-.238-.01-.564-.518-.664-.852-1.619-5.391-3.208-10.791-4.807-16.188a8.93,8.93,0,0,0-.813-2.045v19.061h-5.594v-33.19c2.238,0,4.487-.022,6.733.036.211.005.511.489.6.8,1.314,4.684,2.6,9.376,3.894,14.065a1.406,1.406,0,0,0,.417.718v-15.56h5.61Z" transform="translate(-2506.784 -460.112)" fill="#fff"/><path d="M3370.919,485.739l-6.414.706c-.1-.932-.17-1.789-.3-2.637-.226-1.489-.8-2-2.335-2.177-1.763-.2-3.024.372-3.47,1.647a5.1,5.1,0,0,0-.276,1.635q-.025,8.3,0,16.609c0,1.16.262,2.3,1.449,2.792a4.508,4.508,0,0,0,4.122-.12,2.055,2.055,0,0,0,.858-1.353c.261-2.124.4-4.263.588-6.51h-3.429v-5.187h9.026v18.78h-4.753c-.131-.435-.268-.89-.437-1.452-2.234,1.757-4.775,1.86-7.378,1.515-3.543-.47-5.878-3.022-6.3-7-.2-1.863-.205-3.751-.219-5.628q-.043-5.954.009-11.91a15.433,15.433,0,0,1,.265-2.8c.709-3.668,2.687-5.618,6.409-6.347a15.921,15.921,0,0,1,6.532.075c3.359.741,5.228,3.09,5.793,7.173C3370.757,484.232,3370.824,484.921,3370.919,485.739Z" transform="translate(-3143.295 -458.224)" fill="#fff"/><path d="M3140.57,500.105l6.4-.8c.1.905.168,1.728.278,2.546.155,1.168.372,2.4,1.756,2.659s2.951.529,4.012-.73a3.386,3.386,0,0,0,.234-3.846,8.7,8.7,0,0,0-2.059-2.449c-1.916-1.667-3.943-3.2-5.887-4.841-3.036-2.555-4.715-5.668-4.131-9.8a7.167,7.167,0,0,1,5.876-6.462,16.337,16.337,0,0,1,6.738.018,6.375,6.375,0,0,1,5.109,4.547c.371,1.182.577,2.416.894,3.778l-6.379.632c-.084-.477-.164-.88-.225-1.286-.174-1.146-.607-2.081-1.888-2.319-1.248-.232-2.512-.238-3.35.854a2.855,2.855,0,0,0-.1,3.349,12.125,12.125,0,0,0,2.32,2.508c1.65,1.442,3.4,2.773,5.068,4.193,2.263,1.923,4.234,4.068,4.689,7.167a11.718,11.718,0,0,1-.451,5.564,6.711,6.711,0,0,1-5.161,4.4,16.4,16.4,0,0,1-7.048.189c-3.906-.733-5.983-3.132-6.463-7.368C3140.72,501.814,3140.657,501.02,3140.57,500.105Z" transform="translate(-2976.348 -458.257)" fill="#fff"/><path d="M3464.862,483.225h-9.342V490.3h7.693V495.6h-7.668v10.169h9.325v5.495h-15.745V477.7h15.736Z" transform="translate(-3220.407 -459.574)" fill="#fff"/><path d="M3279.337,495.681v10.111h9.379v5.546h-15.682V477.791h15.69v5.481h-9.354v7.085h7.74v5.324Z" transform="translate(-3081.124 -459.643)" fill="#fff"/><path d="M3111.658,460.9h-3.284V390.971h3.284Z" transform="translate(-2950.881 -390.971)" fill="#fff"/><path d="M3243.342,511.45h-6.229V477.865h6.229Z" transform="translate(-3052.71 -459.702)" fill="#fff"/><path d="M2918.037,487.412l5.978-.59c-.387-3.572-1.109-6.784-4.873-8.278h5.989v33.2h-6.4c.2-.09.313-.155.436-.2,3.358-1.138,4.937-3.33,5.206-6.9a10.526,10.526,0,0,0-3.5-8.99c-1.945-1.791-3.993-3.469-5.963-5.232a14.076,14.076,0,0,1-1.924-2.043,3.461,3.461,0,0,1-.152-3.651c.8-1.1,1.982-1.042,3.133-.918,1.036.112,1.655.841,1.886,2.078C2917.93,486.341,2917.961,486.791,2918.037,487.412Z" transform="translate(-2795.855 -460.24)" fill="#fff"/><path d="M3003.077,477.072c.444.377.837.546.94.823q2.763,7.364,5.448,14.757a1.586,1.586,0,0,1-.035,1q-2.951,8.239-5.944,16.462a7,7,0,0,1-.409.737Z" transform="translate(-2867.594 -459.074)" fill="#fff"/><path d="M2358.667,410.251a35.3,35.3,0,0,1,3.131-5.506,1.922,1.922,0,0,0,.514-2.172,1.006,1.006,0,0,0-.181-.077c-.445-.1-.891-.186-1.337-.278a5.815,5.815,0,0,1,.886-1.294c.435-.371,1.022-.563,1.342-.94a4.771,4.771,0,0,1,.727-1.378,1.122,1.122,0,0,1,1.095.068,5.311,5.311,0,0,1,.411,1.578l4.029,1.964-.058.186c-.43-.038-.86-.092-1.292-.11-.47-.019-.941,0-1.448,0l-.165,1.1-.741-.314a1.842,1.842,0,0,0,.286,2.595,4.03,4.03,0,0,1,.964,4.116c-.077.313.224.74.4,1.091a9.5,9.5,0,0,0,.605.925,1.72,1.72,0,0,1-2.03-1.345c-.026-.378-.13-.753-.127-1.129.011-1.493-.892-2.363-2.282-3.259-1.076,1.208-2.157,2.459-3.285,3.665C2359.756,410.107,2359.428,410.8,2358.667,410.251Z" transform="translate(-2357.884 -396.921)" fill="#fff"/><path d="M3035.529,590.3l3.651,9.867h-6.991Z" transform="translate(-2890.621 -548.632)" fill="#fff"/><path d="M2749.106,429.231c.068-.53.121-.942.178-1.391,1.689-.281,3.441.173,5.11-.239,0-.117,0-.234,0-.351a7.333,7.333,0,0,0-.835-.1c-.939-.013-1.88,0-2.82-.007-1.328-.011-1.872-.542-1.87-1.806s.531-1.756,1.894-1.76c1.63-.005,3.26,0,5,0-.063.535-.113.962-.174,1.49h-5.248c-.026.1-.052.2-.079.306a2.431,2.431,0,0,0,.743.288c1.078.033,2.159,0,3.238.02,1.063.022,1.512.527,1.537,1.663.027,1.222-.413,1.855-1.439,1.881C2752.638,429.262,2750.934,429.231,2749.106,429.231Z" transform="translate(-2666.525 -416.756)" fill="#fff"/><path d="M2491.26,429.054h-1.224v-2.643l-.268-.079c-.435.718-.863,1.44-1.306,2.152a1.356,1.356,0,0,1-2.336,0,15.042,15.042,0,0,0-1.456-2.116v2.664H2483.3v-5.5c.876-.244,1.544-.208,2.023.771.546,1.116,1.257,2.152,1.984,3.37.677-1.144,1.356-2.149,1.887-3.227a1.545,1.545,0,0,1,2.068-.94Z" transform="translate(-2456.462 -416.622)" fill="#fff"/><path d="M2446.64,423.507c1.959,0,3.8-.029,5.632.013a1.253,1.253,0,0,1,1.265,1.376c.032.938.033,1.878,0,2.816a1.363,1.363,0,0,1-1.455,1.441c-1.32.038-2.642.034-3.963,0a1.386,1.386,0,0,1-1.468-1.445C2446.6,426.358,2446.64,425.005,2446.64,423.507Zm1.469,4.183c1.237,0,2.408.022,3.577-.023a.715.715,0,0,0,.489-.494c.058-.707.023-1.421.023-2.128h-4.089Z" transform="translate(-2427.457 -416.698)" fill="#fff"/><path d="M3039.041,486.829l-2.957-8.087h5.9l-2.7,8.082Z" transform="translate(-2893.701 -460.395)" fill="#fff"/><path d="M2540.97,425.273h-5.231a1.319,1.319,0,0,0-.13.283c-.189,2.432-.188,2.432,2.223,2.432h3.114l.137,1.452c-1.929,0-3.765.041-5.6-.02a1.253,1.253,0,0,1-1.234-1.318c-.04-1.384-.011-2.77-.011-4.235h6.82C2541.033,424.3,2541.007,424.7,2540.97,425.273Z" transform="translate(-2496.749 -416.992)" fill="#fff"/><path d="M2598.245,423.138v5.5H2597c-.051-.441-.1-.874-.165-1.417-.964,0-1.931-.033-2.893.023a.954.954,0,0,0-.692.479c-.4.977-1.123,1.111-2.183.87.408-.7.793-1.362,1.184-2.024.229-.388.467-.771.7-1.157C2594.539,422.8,2595.031,422.588,2598.245,423.138Zm-3.62,2.527h2.221V424.6C2595.15,424.345,2595.065,424.387,2594.625,425.665Z" transform="translate(-2541.701 -416.219)" fill="#fff"/><path d="M2629.9,423.553a1.958,1.958,0,0,1,2.107.539c1.014.995,2.1,1.916,3.34,3.034v-3.595h1.362v5.877a10.2,10.2,0,0,1-1.986-.94c-1.132-.9-2.174-1.908-3.447-3.046v3.645H2629.9Z" transform="translate(-2572.418 -416.658)" fill="#fff"/><path d="M2668.091,427.967h5.212c.092.474.175.9.283,1.449-1.988,0-3.888.056-5.782-.028a1.278,1.278,0,0,1-1.156-1.4c-.024-1.352-.006-2.7-.006-4.135h6.9c-.065.441-.128.865-.207,1.4h-5.241Z" transform="translate(-2601.478 -416.982)" fill="#fff"/><path d="M2410.728,425.192v-1.421h6.821v1.384h-2.709v4.169h-1.363v-4.132Z" transform="translate(-2399.062 -416.915)" fill="#fff"/><path d="M2706.49,424.978c1.006-.942,1.431-2.642,3.259-1.881-.852,1.8-3.253,2.86-2.456,5.455H2705.8c.632-2.5-1.524-3.661-2.728-5.729a6.685,6.685,0,0,1,2.029.507A7.9,7.9,0,0,1,2706.49,424.978Z" transform="translate(-2630.299 -416.165)" fill="#fff"/><path d="M2575.393,427.651c-.319,1.19-.936,1.623-2.02,1.489a20.51,20.51,0,0,0-2.446-.019V423.5l1.265-.063v4.21Z" transform="translate(-2525.775 -416.654)" fill="#fff"/><path d="M2737.7,425.165c-.127-1.552.208-1.793,2.122-1.514C2739.208,424.338,2739.03,425.434,2737.7,425.165Z" transform="translate(-2657.669 -416.74)" fill="#fff"/></g></svg>