<svg xmlns="http://www.w3.org/2000/svg" width="27.092" height="27.233" viewBox="0 0 27.092 27.233"><path d="M3.054-38.63a11.592,11.592,0,0,0-11.6-11.62,11.605,11.605,0,0,0-11.6,11.62,11.584,11.584,0,0,0,11.6,11.579,11.545,11.545,0,0,0,7.383-2.643l6.677,6.677,1.432-1.432L.29-31.106A11.469,11.469,0,0,0,3.054-38.63Zm-11.6,9.562a9.484,9.484,0,0,1-3.732-.746,9.963,9.963,0,0,1-3.046-2.037A9.727,9.727,0,0,1-17.361-34.9a9.359,9.359,0,0,1-.767-3.732,9.6,9.6,0,0,1,.767-3.752,9.963,9.963,0,0,1,2.037-3.046,9.452,9.452,0,0,1,3.046-2.058,9.779,9.779,0,0,1,3.732-.746,9.529,9.529,0,0,1,3.752.767,9.639,9.639,0,0,1,3.026,2.037A9.537,9.537,0,0,1,.29-42.362a9.484,9.484,0,0,1,.746,3.732A9.316,9.316,0,0,1,.29-34.919a9,9,0,0,1-2.037,3.026,9.3,9.3,0,0,1-3.046,2.078A9.582,9.582,0,0,1-8.546-29.068Z" transform="translate(20.145 50.25)" fill="#fff"/></svg>