<svg xmlns="http://www.w3.org/2000/svg" width="88.009" height="100.582" viewBox="0 0 88.009 100.582">
  <g id="_41484d92c876f76b20c7f746221e8151" data-name="41484d92c876f76b20c7f746221e8151" transform="translate(-35 -20)">
    <path id="Path_697" data-name="Path 697" d="M99.33,103.9a5.6,5.6,0,1,0,5.13,5.582A5.358,5.358,0,0,0,99.33,103.9Zm18.356,0a5.6,5.6,0,1,0,5.13,5.582A5.358,5.358,0,0,0,117.686,103.9Z" transform="translate(-29.428 -41.706)" fill="#fff"/>
    <path id="Path_698" data-name="Path 698" d="M112.7,20H45.31A10.334,10.334,0,0,0,35,30.36V98.353a10.335,10.335,0,0,0,10.31,10.36h57.03l-2.665-9.3,6.437,5.985,6.085,5.633,10.813,9.555V30.36A10.334,10.334,0,0,0,112.7,20ZM93.287,85.68s-1.81-2.162-3.319-4.074c6.588-1.861,9.1-5.985,9.1-5.985a28.778,28.778,0,0,1-5.783,2.967,33.1,33.1,0,0,1-7.292,2.163A35.23,35.23,0,0,1,72.97,80.7a42.216,42.216,0,0,1-7.393-2.163,29.471,29.471,0,0,1-3.671-1.71c-.151-.1-.3-.151-.453-.251a.694.694,0,0,1-.2-.151c-.905-.5-1.408-.855-1.408-.855s2.414,4.023,8.8,5.934c-1.509,1.911-3.369,4.174-3.369,4.174-11.114-.352-15.339-7.644-15.339-7.644a67.347,67.347,0,0,1,7.242-29.319c7.242-5.431,14.132-5.281,14.132-5.281l.5.6c-9.052,2.615-13.226,6.588-13.226,6.588s1.106-.6,2.967-1.458A37.767,37.767,0,0,1,72.97,46a4.955,4.955,0,0,1,.855-.1,42.552,42.552,0,0,1,10.159-.1,41,41,0,0,1,15.138,4.828S95.148,46.855,86.6,44.24l.7-.8s6.89-.151,14.132,5.281a67.347,67.347,0,0,1,7.242,29.319S104.4,85.328,93.287,85.68Z" fill="#fff"/>
  </g>
</svg>
