<svg id="Group_99" data-name="Group 99" xmlns="http://www.w3.org/2000/svg" width="210.317" height="30.068" viewBox="0 0 210.317 30.068">
  <path id="Path_621" data-name="Path 621" d="M2403.244,54.069a15.059,15.059,0,1,1,15.007,15.041A15.057,15.057,0,0,1,2403.244,54.069ZM2428,53.515a9.768,9.768,0,0,0-15.332-7.549,10.115,10.115,0,0,0-2.882,12.9,9.62,9.62,0,0,0,11.3,4.756C2425.179,62.368,2427.985,58.5,2428,53.515Z" transform="translate(-2336.121 -39.042)" fill="#fff"/>
  <path id="Path_622" data-name="Path 622" d="M2529.282,46.328c-.163-.012-.271-.027-.379-.027h-11.648c-.377,0-.379,0-.379.4q0,11.2,0,22.41a1.277,1.277,0,0,1-.04.447.51.51,0,0,1-.521.316c-1.4,0-2.8,0-4.195,0-.406,0-.571-.2-.571-.661q0-9.861,0-19.722,0-3.806,0-7.612c0-.479.181-.661.666-.661h21.738c.513,0,.7.19.7.7,0,1.886,0,3.773,0,5.659a1.738,1.738,0,0,1-.4,1.146q-3.237,4.026-6.462,8.061c-.3.381-.3.267,0,.643q4.72,5.9,9.438,11.806a.624.624,0,0,1,.142.441c-.045.231-.276.207-.467.207-1.739,0-3.477,0-5.215,0a1.559,1.559,0,0,1-1.295-.628q-3.417-4.281-6.843-8.554-1.246-1.558-2.492-3.117c-.308-.386-.311-.569-.009-.947l7.993-9.991C2529.115,46.554,2529.18,46.464,2529.282,46.328Z" transform="translate(-2409.427 -40.514)" fill="#fff"/>
  <path id="Path_623" data-name="Path 623" d="M2701.166,61.247V41.955c0-.586.159-.743.759-.743h3.826c.588,0,.765.175.765.75V69.128c0,.577-.165.744-.738.744q-1.956,0-3.911,0a1.509,1.509,0,0,1-1.251-.6q-7.683-9.6-15.371-19.205c-.07-.087-.145-.169-.272-.315-.013.194-.028.317-.028.44q0,5.433,0,10.866c0,.194.088.442-.173.546-.279.111-.4-.112-.545-.289q-2.129-2.665-4.262-5.327a1.517,1.517,0,0,1-.348-.989q.006-6.565,0-13.13c0-.467.179-.656.643-.658q2-.006,4,0a1.585,1.585,0,0,1,1.288.649q5.334,6.681,10.68,13.351,2.344,2.929,4.688,5.857c.057.071.121.136.182.2Z" transform="translate(-2523.186 -40.51)" fill="#fff"/>
  <path id="Path_624" data-name="Path 624" d="M2619.052,59.839l-1.705,2.129q-2.919,3.645-5.835,7.293a1.532,1.532,0,0,1-1.272.613c-1.323,0-2.645,0-3.968,0-.483,0-.666-.183-.666-.665q0-13.653,0-27.3c0-.494.186-.687.68-.688q1.954,0,3.91,0a1.624,1.624,0,0,1,1.345.648q6.269,7.853,12.554,15.693l9.3,11.623a1.775,1.775,0,0,1,.122.156.321.321,0,0,1-.264.538c-.084.006-.17,0-.255,0-1.7,0-3.4,0-5.1,0a1.557,1.557,0,0,1-1.3-.617q-3.657-4.579-7.321-9.15C2619.216,60.029,2619.147,59.952,2619.052,59.839Zm-8.076,1.974.083.051a1.939,1.939,0,0,1,.106-.165q2.385-2.983,4.777-5.961c.137-.169.094-.265-.021-.408q-2.376-2.955-4.74-5.918a1,1,0,0,1-.1-.225l-.1.089Z" transform="translate(-2473.092 -40.512)" fill="#fff"/>
  <path id="Path_625" data-name="Path 625" d="M2254.913,59.838c-.492.613-.965,1.2-1.436,1.789q-3.06,3.823-6.119,7.648a1.508,1.508,0,0,1-1.253.593q-2.623,0-5.244,0c-.185,0-.4.011-.448-.2a.62.62,0,0,1,.134-.45q8.173-10.229,16.359-20.447,2.566-3.2,5.127-6.412a2.935,2.935,0,0,1,2.382-1.153c1.1-.013,2.192-.005,3.288,0,.48,0,.659.188.659.672V69.19c0,.509-.168.677-.676.677-1.294,0-2.589-.007-3.884,0a1.621,1.621,0,0,1-1.369-.651q-3.626-4.549-7.266-9.088C2255.094,60.038,2255.011,59.951,2254.913,59.838Zm8.07-10.576-.072-.05a.776.776,0,0,1-.075.147q-2.4,3.007-4.814,6.008c-.117.145-.086.234.016.362q2.394,2.978,4.781,5.962a1.862,1.862,0,0,0,.165.156Z" transform="translate(-2225.902 -40.505)" fill="#fff"/>
  <path id="Path_626" data-name="Path 626" d="M2200.922,61.268c.065-.072.135-.141.2-.217q7.679-9.59,15.352-19.185a1.644,1.644,0,0,1,1.368-.66h5.158a.279.279,0,0,1,.112,0c.127.064.3.108.358.213a.438.438,0,0,1-.083.371c-.632.811-1.278,1.611-1.92,2.414q-10.022,12.519-20.041,25.04a1.533,1.533,0,0,1-1.269.619c-1.323,0-2.645,0-3.968,0-.487,0-.665-.174-.665-.663q0-13.668,0-27.335c0-.479.184-.66.673-.66q2,0,4,0c.48,0,.658.185.658.669V61.244Z" transform="translate(-2195.518 -40.504)" fill="#fff"/>
  <path id="Path_627" data-name="Path 627" d="M2782.641,57.938q0-5.616,0-11.232c0-.414,0-.415-.422-.415H2775.3c-.611,0-.746-.137-.746-.75V41.947c0-.567.173-.74.743-.74h13.632c1.379,0,2.758.01,4.138,0a1.8,1.8,0,0,1,1.559.74c.97,1.254,1.978,2.478,2.964,3.719a.657.657,0,0,1,.162.344c.006.187-.137.278-.323.28-.321,0-.642,0-.963,0h-8.076c-.425,0-.425,0-.425.413q.009,6.677.018,13.354.008,4.541.028,9.081c0,.555-.17.727-.726.727h-3.939c-.524,0-.686-.164-.686-.695V57.938Z" transform="translate(-2587.451 -40.505)" fill="#fff"/>
  <path id="Path_628" data-name="Path 628" d="M2347.155,55.545V41.992c0-.624.154-.776.789-.776h3.826c.56,0,.743.185.743.747q0,11.219,0,22.437c0,.408,0,.408.416.408h11.279a.884.884,0,0,1,.254,0c.133.042.322.081.365.176a.482.482,0,0,1-.1.4c-.774.987-1.562,1.964-2.347,2.943-.265.332-.532.662-.8.994a1.412,1.412,0,0,1-1.159.55q-6.32,0-12.639,0c-.465,0-.634-.185-.634-.692Q2347.155,62.364,2347.155,55.545Z" transform="translate(-2298.156 -40.513)" fill="#fff"/>
  <path id="Path_629" data-name="Path 629" d="M2839.149,123.857c.164-.413.3-.759.436-1.105.113-.289.238-.574.332-.869.086-.268.294-.2.464-.176.059.01.132.175.133.271.011.771.006,1.543.006,2.337h-.308v-2.224l-.065-.017c-.043.085-.092.169-.128.257-.244.6-.483,1.2-.731,1.8a.9.9,0,0,1-.162.2.966.966,0,0,1-.16-.2c-.248-.6-.488-1.2-.731-1.8-.034-.085-.074-.167-.111-.25l-.072.008v2.236l-.329.015v-1.168c0-.4-.009-.792.007-1.187,0-.1.073-.266.129-.273.168-.022.376-.1.475.159.21.554.437,1.1.659,1.651C2839.03,123.611,2839.076,123.7,2839.149,123.857Z" transform="translate(-2630.204 -94.977)" fill="#fff"/>
  <path id="Path_630" data-name="Path 630" d="M2830.981,124.337c-.222.08-.261-.031-.261-.2,0-.613-.009-1.226.006-1.838.005-.254-.073-.367-.336-.339a1.605,1.605,0,0,1-.4-.006c-.055-.008-.1-.079-.15-.121.046-.036.091-.1.137-.1q.891-.011,1.784,0c.044,0,.086.071.131.11-.043.039-.08.1-.129.113a1.382,1.382,0,0,1-.282.01c-.482,0-.482,0-.482.468q0,.9,0,1.81A.709.709,0,0,1,2830.981,124.337Z" transform="translate(-2624.872 -95.005)" fill="#fff"/>
</svg>
